<svg id="Capa_1" enable-background="new 0 0 512 512" height="512" viewBox="0 0 512 512" width="512" xmlns="http://www.w3.org/2000/svg" xmlns:xlink="http://www.w3.org/1999/xlink"><linearGradient id="SVGID_1_" gradientUnits="userSpaceOnUse" x1="256" x2="256" y1="512" y2="0"><stop offset="0" stop-color="#c3ffe8"/><stop offset=".9973" stop-color="#f0fff4"/></linearGradient><linearGradient id="SVGID_2_" gradientUnits="userSpaceOnUse" x1="256" x2="256" y1="398" y2="114"><stop offset="0" stop-color="#9cffac"/><stop offset="1" stop-color="#00b59c"/></linearGradient><g><g><circle cx="256" cy="256" fill="url(#SVGID_1_)" r="256"/></g><g><g><path d="m220.471 287.825 11.485-11.475c3.469-3.467 9.091-3.467 12.56 0l11.484 11.475 11.485-11.475c3.469-3.467 9.091-3.467 12.56 0l11.485 11.475 25.377-25.356-53.724-73.811c-3.348-4.594-11.016-4.594-14.364 0l-53.724 73.811zm184.828 96.082-77.815-106.907-29.674 29.65c-1.735 1.733-4.008 2.6-6.28 2.6-2.273 0-4.545-.867-6.28-2.6l-11.485-11.475-11.485 11.475c-3.469 3.467-9.091 3.467-12.56 0l-11.485-11.475-11.485 11.475c-3.469 3.467-9.09 3.467-12.56 0l-29.674-29.65-77.816 106.907c-1.969 2.695-2.247 6.266-.737 9.248 1.518 2.973 4.58 4.845 7.919 4.845h284.234c3.339 0 6.401-1.872 7.919-4.845 1.511-2.981 1.233-6.552-.736-9.248zm-247.005-163.407c29.388 0 53.294-23.886 53.294-53.25s-23.905-53.25-53.294-53.25c-29.388 0-53.294 23.886-53.294 53.25s23.906 53.25 53.294 53.25z" fill="url(#SVGID_2_)"/></g></g></g></svg>